<svg width="64" height="28" viewBox="0 0 64 28" fill="none" xmlns="http://www.w3.org/2000/svg">
    <mask id="mask0_11_2" style="mask-type:luminance" maskUnits="userSpaceOnUse" x="0" y="0" width="64" height="28">
        <path d="M63.6585 0H0V28H63.6585V0Z" fill="white" />
    </mask>
    <g mask="url(#mask0_11_2)">
        <mask id="mask1_11_2" style="mask-type:luminance" maskUnits="userSpaceOnUse" x="0" y="0" width="64" height="28">
            <path d="M63.6585 0H0V28H63.6585V0Z" fill="white" />
        </mask>
        <g mask="url(#mask1_11_2)">
            <path
                d="M58.7596 8.24122H56.9256C56.8969 8.24122 56.8723 8.25775 56.8669 8.28057L55.5154 13.9421C55.5081 13.9726 55.5375 14.0008 55.5757 14L57.6353 13.9541C57.6634 13.9535 57.6872 13.937 57.6925 13.9146L58.5485 10.2664C58.5497 10.2612 58.552 10.2561 58.5552 10.2516C59.2137 9.31189 60.6371 9.16712 60.6429 9.84128C60.6429 9.84392 60.6427 9.84668 60.6421 9.84932L59.8472 13.7749C59.8412 13.8046 59.8689 13.8315 59.9058 13.8315H61.8763C61.9064 13.8315 61.9312 13.8133 61.9352 13.7891C62.0028 13.3865 62.1537 12.8625 62.3205 12.3002C62.586 10.8662 63.1965 9.43471 62.8849 8.77596C62.4751 7.68095 60.4564 7.82183 58.916 8.71832C58.8759 8.7417 58.8194 8.71869 58.8194 8.67865V8.28981C58.8194 8.26297 58.7926 8.24122 58.7596 8.24122Z"
                fill="#080808" />
            <path fill-rule="evenodd" clip-rule="evenodd"
                d="M50.4823 11.408C53.695 11.3774 54.8338 11.238 55.0611 11.0194C55.2264 10.9481 55.3444 10.7697 55.4025 10.5336C55.8731 8.90622 54.8675 7.61628 52.2034 8.10468C50.0547 8.39923 48.7192 9.44607 48.0792 11.4809C47.8995 12.9563 48.8262 13.9098 50.4823 13.9827C52.1385 14.0556 53.0478 13.9098 54.3792 13.3269C54.4597 12.7851 54.4072 12.7572 54.3682 12.7365C54.36 12.7321 54.3524 12.7281 54.3468 12.7196C54.3142 12.6711 53.5024 12.3067 53.3725 12.3164C52.9828 12.5982 51.0993 13.0597 50.4823 12.2824C50.4553 11.858 50.4823 11.408 50.4823 11.408ZM50.8396 10.4122C50.9129 9.82102 52.0567 9.26691 52.2034 9.27056C52.4095 9.16823 53.7654 9.32226 53.3725 10.1935C53.355 10.3224 52.5088 10.3526 51.1659 10.4004L50.8396 10.4122Z"
                fill="#080808" />
            <path
                d="M20.4645 17.0892C19.7129 17.8083 19.6399 17.8334 19.0638 17.9889C18.4878 18.1445 55.2308 16.6093 55.2308 16.6093C57.283 16.426 58.2899 16.0685 59.6571 14.6699C54.5024 14.6898 47.8069 15.0298 46.5742 15.0897C47.485 12.7037 47.9546 11.3385 48.9835 9.03142C48.9358 8.7962 46.4853 9.91296 45.6217 11.3308C45.2856 11.4963 43.0574 15.1381 42.9043 15.2697C42.9043 15.2697 24.0224 15.8495 23.3781 15.9895C23.0192 15.9918 21.2162 16.3701 20.4645 17.0892Z"
                fill="#080808" />
            <path d="M44.7428 18L40.4889 18.1994L29.8286 26.9629C35.8068 27.486 42.7589 22.3818 44.7428 18Z"
                fill="#080808" />
            <path
                d="M39.7193 12.4394C39.4284 13.0281 39.3986 13.5585 39.7193 14C36.5437 13.7643 35.9024 9.67145 41.3071 6.07143C45.8054 3.03384 48.5707 2.20544 53.8571 2C53.4535 2.70234 42.5311 9.34604 39.7193 12.4394Z"
                fill="#080808" />
            <path fill-rule="evenodd" clip-rule="evenodd"
                d="M33.7663 9.01446C34.6314 8.94969 35.4551 9.09702 35.8941 9.56767C36.4118 9.97127 36.5529 10.7754 36.3974 11.5603C36.229 12.4104 35.5994 13.0325 34.9789 13.4043C34.5565 13.7031 34.0134 13.8767 33.28 13.9899C32.4343 14.0338 31.9387 13.9299 31.5699 13.7689C31.3582 13.6701 31.185 13.5363 31.0439 13.362C30.9637 13.2699 30.8976 13.1658 30.8444 13.0486C30.6647 12.7558 30.6275 12.2503 30.6775 11.5603C30.8861 10.7449 31.2429 10.2729 31.6867 9.93491C31.7717 9.85773 31.8616 9.78616 31.9568 9.71946C32.3651 9.35693 32.9929 9.0724 33.7663 9.01446ZM32.4622 11.5603C32.6468 10.6849 33.0974 10.1311 33.7663 10.1112C34.4352 10.0912 34.8315 10.5001 34.5899 11.5603C34.2914 12.5013 34.0041 12.7916 33.3087 12.8724C32.4893 12.9033 32.3644 12.5489 32.4622 11.5603Z"
                fill="#080808" />
            <path
                d="M26.2787 9.20794C26.2787 9.20794 26.2254 9.58886 26.2787 9.56884C26.8098 9.18533 29.6903 8.38584 29.8236 9.82946C29.8739 10.3749 29.5256 11.6541 29.5304 11.6741C29.5351 11.6942 28.9365 13.787 29.024 13.8195L27.0783 13.8797C27.0783 13.8797 27.718 10.8521 27.7713 10.5713C27.6647 9.70916 26.0725 10.4426 25.9322 10.832C25.7919 11.2214 25.3924 12.5988 25.1326 13.9398C25.1326 13.9398 23.3735 14 23.2136 14C23.1306 14 23.443 12.7015 23.7625 11.4536C24.0581 10.2991 24.3597 9.18787 24.3597 9.18787C24.9611 9.1678 26.2787 9.20794 26.2787 9.20794Z"
                fill="#080808" />
            <path
                d="M20.7148 7.54386C20.6891 7.96579 21.7395 8 21.7395 8C21.7395 8 22.841 7.9772 23.1484 7.54386C23.4558 7.11054 22.303 6.96229 21.97 7.00791C21.637 7.05352 20.7404 7.12194 20.7148 7.54386Z"
                fill="#080808" />
            <path
                d="M20.1455 10.0496L23.2 10C22.5029 11.2379 22.2541 12.0994 22.0765 13.9504L19.0571 14C19.8547 12.3498 20.1356 11.4725 20.1455 10.0496Z"
                fill="#080808" />
            <path fill-rule="evenodd" clip-rule="evenodd"
                d="M13.891 11.1475L12.8436 10.7038C13.8256 10.0065 18.375 9.57866 19.0296 10.6404C19.1333 11.2012 18.9266 11.6957 18.6988 12.2406C18.4953 12.7274 18.275 13.2544 18.2441 13.9049H16.2148V13.6514C15.7594 13.8241 15.4803 13.9052 14.9056 14H13.0073C12.9092 14 12.1761 13.8242 11.8945 13.6514C11.6129 13.4785 11.6 13.2552 11.6 13.0333C11.6 12.8114 11.9272 12.3678 12.1891 12.2093C12.4509 12.0508 13.4983 11.7814 13.7928 11.7497C13.9401 11.7339 14.6111 11.7339 15.2534 11.7339C15.8957 11.7339 16.5094 11.7339 16.5421 11.718C16.6076 11.6863 16.7755 11.481 16.7712 11.306C16.7429 11.1784 16.7025 11.1085 16.5421 10.989C16.36 10.8715 16.0184 10.8464 15.8548 10.8464C15.8395 10.8464 15.8212 10.8463 15.8 10.8462C15.5944 10.8449 15.1299 10.8421 14.7748 10.9257L13.891 11.1475ZM16.3131 12.3519C16.3183 12.5366 16.3052 12.6375 16.2475 12.8114C16.1149 12.935 16.0207 12.9991 15.7894 13.0967C15.5462 13.1876 15.3919 13.2179 15.102 13.2552C14.3832 13.2746 14.1709 13.1893 13.9892 12.9382C14.032 12.6257 14.2263 12.5057 14.9056 12.3994C15.3264 12.3362 15.6793 12.3419 16.3034 12.3517L16.3131 12.3519Z"
                fill="#080808" />
            <path d="M4.14288 14C4.97592 5.0442 16.6979 0.459977 20.7143 1.05073L4.14288 14Z" fill="#080808" />
            <path d="M4.97144 15.6211L7.40718 14L17.4 19.907C14.3814 20.2424 7.6695 19.8548 4.97144 15.6211Z"
                fill="#080808" />
            <path d="M4.97141 7C2.2612 8.82993 -1.86873 13.5918 3.29321 18L4.97141 7Z" fill="#080808" />
        </g>
    </g>
</svg>