<?xml version="1.0" encoding="UTF-8" standalone="no"?>
<svg
   width="512"
   height="512"
   viewBox="0 0 512 512"
   fill="none"
   version="1.1"
   id="svg16"
   sodipodi:docname="superLogo-xl.svg"
   inkscape:version="1.3.2 (091e20ef0f, 2023-11-25)"
   xmlns:inkscape="http://www.inkscape.org/namespaces/inkscape"
   xmlns:sodipodi="http://sodipodi.sourceforge.net/DTD/sodipodi-0.dtd"
   xmlns="http://www.w3.org/2000/svg"
   xmlns:svg="http://www.w3.org/2000/svg">
  <defs
     id="defs16" />
  <sodipodi:namedview
     id="namedview16"
     pagecolor="#ffffff"
     bordercolor="#000000"
     borderopacity="0.25"
     inkscape:showpageshadow="2"
     inkscape:pageopacity="0.0"
     inkscape:pagecheckerboard="true"
     inkscape:deskcolor="#d1d1d1"
     inkscape:zoom="0.9765625"
     inkscape:cx="4.608"
     inkscape:cy="314.88"
     inkscape:window-width="2752"
     inkscape:window-height="1124"
     inkscape:window-x="0"
     inkscape:window-y="0"
     inkscape:window-maximized="1"
     inkscape:current-layer="g16" />
  <mask
     id="mask0_11_2"
     maskUnits="userSpaceOnUse"
     x="0"
     y="0"
     width="64"
     height="28">
    <path
       d="M 63.6585,0 H 0 v 28 h 63.6585 z"
       fill="#ffffff"
       id="path1" />
  </mask>
  <g
     mask="url(#mask0_11_2)"
     id="g16"
     transform="matrix(8.2390827,0,0,19.692283,-5.5115119,-19.076311)"
     style="display:inline;opacity:1;mix-blend-mode:normal">
    <mask
       id="mask1_11_2"
       maskUnits="userSpaceOnUse"
       x="0"
       y="0"
       width="64"
       height="28">
      <path
         d="M 63.6585,0 H 0 v 28 h 63.6585 z"
         fill="#ffffff"
         id="path2" />
    </mask>
    <g
       mask="url(#mask1_11_2)"
       id="g15"
       style="opacity:1">
      <path
         d="m 58.7596,8.24122 h -1.834 c -0.0287,0 -0.0533,0.01653 -0.0587,0.03935 l -1.3515,5.66153 c -0.0073,0.0305 0.0221,0.0587 0.0603,0.0579 l 2.0596,-0.0459 c 0.0281,-6e-4 0.0519,-0.0171 0.0572,-0.0395 l 0.856,-3.6482 c 0.0012,-0.0052 0.0035,-0.0103 0.0067,-0.0148 0.6585,-0.93971 2.0819,-1.08448 2.0877,-0.41032 0,0.00264 -2e-4,0.0054 -8e-4,0.00804 l -0.7949,3.92558 c -0.006,0.0297 0.0217,0.0566 0.0586,0.0566 h 1.9705 c 0.0301,0 0.0549,-0.0182 0.0589,-0.0424 0.0676,-0.4026 0.2185,-0.9266 0.3853,-1.4889 0.2655,-1.434 0.876,-2.86549 0.5644,-3.52424 C 62.4751,7.68095 60.4564,7.82183 58.916,8.71832 58.8759,8.7417 58.8194,8.71869 58.8194,8.67865 V 8.28981 c 0,-0.02684 -0.0268,-0.04859 -0.0598,-0.04859 z"
         fill="#080808"
         id="path3" />
      <path
         fill-rule="evenodd"
         clip-rule="evenodd"
         d="m 50.4823,11.408 c 3.2127,-0.0306 4.3515,-0.17 4.5788,-0.3886 0.1653,-0.0713 0.2833,-0.2497 0.3414,-0.4858 0.4706,-1.62738 -0.535,-2.91732 -3.1991,-2.42892 -2.1487,0.29455 -3.4842,1.34139 -4.1242,3.37622 -0.1797,1.4754 0.747,2.4289 2.4031,2.5018 1.6562,0.0729 2.5655,-0.0729 3.8969,-0.6558 0.0805,-0.5418 0.028,-0.5697 -0.011,-0.5904 -0.0082,-0.0044 -0.0158,-0.0084 -0.0214,-0.0169 -0.0326,-0.0485 -0.8444,-0.4129 -0.9743,-0.4032 -0.3897,0.2818 -2.2732,0.7433 -2.8902,-0.034 -0.027,-0.4244 0,-0.8744 0,-0.8744 z m 0.3573,-0.9958 c 0.0733,-0.59118 1.2171,-1.14529 1.3638,-1.14164 0.2061,-0.10233 1.562,0.0517 1.1691,0.92294 -0.0175,0.1289 -0.8637,0.1591 -2.2066,0.2069 z"
         fill="#080808"
         id="path4" />
      <path
         d="m 20.4645,17.0892 c -0.7516,0.7191 -0.8246,0.7442 -1.4007,0.8997 -0.576,0.1556 36.167,-1.3796 36.167,-1.3796 2.0522,-0.1833 3.0591,-0.5408 4.4263,-1.9394 -5.1547,0.0199 -11.8502,0.3599 -13.0829,0.4198 0.9108,-2.386 1.3804,-3.7512 2.4093,-6.05828 -0.0477,-0.23522 -2.4982,0.88154 -3.3618,2.29938 -0.3361,0.1655 -2.5643,3.8073 -2.7174,3.9389 0,0 -18.8819,0.5798 -19.5262,0.7198 -0.3589,0.0023 -2.1619,0.3806 -2.9136,1.0997 z"
         fill="#080808"
         id="path5" />
      <path
         d="m 44.7428,18 -4.2539,0.1994 -10.6603,8.7635 C 35.8068,27.486 42.7589,22.3818 44.7428,18 Z"
         fill="#080808"
         id="path6" />
      <path
         d="m 39.7193,12.4394 c -0.2909,0.5887 -0.3207,1.1191 0,1.5606 C 36.5437,13.7643 35.9024,9.67145 41.3071,6.07143 45.8054,3.03384 48.5707,2.20544 53.8571,2 53.4535,2.70234 42.5311,9.34604 39.7193,12.4394 Z"
         fill="#080808"
         id="path7" />
      <path
         fill-rule="evenodd"
         clip-rule="evenodd"
         d="m 33.7663,9.01446 c 0.8651,-0.06477 1.6888,0.08256 2.1278,0.55321 0.5177,0.4036 0.6588,1.20773 0.5033,1.99263 -0.1684,0.8501 -0.798,1.4722 -1.4185,1.844 -0.4224,0.2988 -0.9655,0.4724 -1.6989,0.5856 -0.8457,0.0439 -1.3413,-0.06 -1.7101,-0.221 -0.2117,-0.0988 -0.3849,-0.2326 -0.526,-0.4069 -0.0802,-0.0921 -0.1463,-0.1962 -0.1995,-0.3134 -0.1797,-0.2928 -0.2169,-0.7983 -0.1669,-1.4883 0.2086,-0.8154 0.5654,-1.2874 1.0092,-1.62539 0.085,-0.07718 0.1749,-0.14875 0.2701,-0.21545 0.4083,-0.36253 1.0361,-0.64706 1.8095,-0.705 z m -1.3041,2.54584 c 0.1846,-0.8754 0.6352,-1.4292 1.3041,-1.4491 0.6689,-0.02 1.0652,0.3889 0.8236,1.4491 -0.2985,0.941 -0.5858,1.2313 -1.2812,1.3121 -0.8194,0.0309 -0.9443,-0.3235 -0.8465,-1.3121 z"
         fill="#080808"
         id="path8" />
      <path
         d="m 26.2787,9.20794 c 0,0 -0.0533,0.38092 0,0.3609 0.5311,-0.38351 3.4116,-1.183 3.5449,0.26062 0.0503,0.54544 -0.298,1.82464 -0.2932,1.84464 0.0047,0.0201 -0.5939,2.1129 -0.5064,2.1454 l -1.9457,0.0602 c 0,0 0.6397,-3.0276 0.693,-3.3084 -0.1066,-0.86214 -1.6988,-0.1287 -1.8391,0.2607 -0.1403,0.3894 -0.5398,1.7668 -0.7996,3.1078 0,0 -1.7591,0.0602 -1.919,0.0602 -0.083,0 0.2294,-1.2985 0.5489,-2.5464 0.2956,-1.1545 0.5972,-2.26573 0.5972,-2.26573 0.6014,-0.02007 1.919,0.02007 1.919,0.02007 z"
         fill="#080808"
         id="path9" />
      <path
         d="M 20.7148,7.54386 C 20.6891,7.96579 21.7395,8 21.7395,8 c 0,0 1.1015,-0.0228 1.4089,-0.45614 C 23.4558,7.11054 22.303,6.96229 21.97,7.00791 21.637,7.05352 20.7404,7.12194 20.7148,7.54386 Z"
         fill="#080808"
         id="path10" />
      <path
         d="M 20.1455,10.0496 23.2,10 c -0.6971,1.2379 -0.9459,2.0994 -1.1235,3.9504 L 19.0571,14 c 0.7976,-1.6502 1.0785,-2.5275 1.0884,-3.9504 z"
         fill="#080808"
         id="path11" />
      <path
         fill-rule="evenodd"
         clip-rule="evenodd"
         d="m 13.891,11.1475 -1.0474,-0.4437 c 0.982,-0.6973 5.5314,-1.12514 6.186,-0.0634 0.1037,0.5608 -0.103,1.0553 -0.3308,1.6002 -0.2035,0.4868 -0.4238,1.0138 -0.4547,1.6643 H 16.2148 V 13.6514 C 15.7594,13.8241 15.4803,13.9052 14.9056,14 H 13.0073 C 12.9092,14 12.1761,13.8242 11.8945,13.6514 11.6129,13.4785 11.6,13.2552 11.6,13.0333 c 0,-0.2219 0.3272,-0.6655 0.5891,-0.824 0.2618,-0.1585 1.3092,-0.4279 1.6037,-0.4596 0.1473,-0.0158 0.8183,-0.0158 1.4606,-0.0158 0.6423,0 1.256,0 1.2887,-0.0159 0.0655,-0.0317 0.2334,-0.237 0.2291,-0.412 -0.0283,-0.1276 -0.0687,-0.1975 -0.2291,-0.317 -0.1821,-0.1175 -0.5237,-0.1426 -0.6873,-0.1426 -0.0153,0 -0.0336,-10e-5 -0.0548,-2e-4 -0.2056,-0.0013 -0.6701,-0.0041 -1.0252,0.0795 z m 2.4221,1.2044 c 0.0052,0.1847 -0.0079,0.2856 -0.0656,0.4595 -0.1326,0.1236 -0.2268,0.1877 -0.4581,0.2853 -0.2432,0.0909 -0.3975,0.1212 -0.6874,0.1585 -0.7188,0.0194 -0.9311,-0.0659 -1.1128,-0.317 0.0428,-0.3125 0.2371,-0.4325 0.9164,-0.5388 0.4208,-0.0632 0.7737,-0.0575 1.3978,-0.0477 z"
         fill="#080808"
         id="path12" />
      <path
         d="M 4.14288,14 C 4.97592,5.0442 16.6979,0.459977 20.7143,1.05073 Z"
         fill="#080808"
         id="path13" />
      <path
         d="M 4.97144,15.6211 7.40718,14 17.4,19.907 C 14.3814,20.2424 7.6695,19.8548 4.97144,15.6211 Z"
         fill="#080808"
         id="path14" />
      <path
         d="M 4.97141,7 C 2.2612,8.82993 -1.86873,13.5918 3.29321,18 Z"
         fill="#080808"
         id="path15" />
    </g>
  </g>
</svg>
